<?xml version="1.0" encoding="utf-8"?>
<!-- Generator: Adobe Illustrator 23.0.3, SVG Export Plug-In . SVG Version: 6.00 Build 0)  -->
<svg version="1.1" id="Layer_1" xmlns="http://www.w3.org/2000/svg" xmlns:xlink="http://www.w3.org/1999/xlink" x="0px" y="0px"
	 viewBox="0 0 62.4 62.4" style="enable-background:new 0 0 62.4 62.4;" xml:space="preserve">
<style type="text/css">
	.st0{fill:#191919;}
</style>
<path class="st0" d="M31.2,61.5c-16.7,0-30.3-13.6-30.3-30.3c0-16.7,13.6-30.3,30.3-30.3c16.7,0,30.3,13.6,30.3,30.3
	C61.5,47.9,47.9,61.5,31.2,61.5z M31.2,4.8C16.7,4.8,4.8,16.7,4.8,31.2c0,14.5,11.8,26.3,26.3,26.3c14.5,0,26.3-11.8,26.3-26.3
	C57.5,16.7,45.7,4.8,31.2,4.8z"/>
<path class="st0" d="M31.7,47.9h-0.5c-10.1,0-14.7-7.5-15.6-11.4l0,0c-0.3-1.3,0.6-2.5,1.9-2.5h27.9c1.3,0,2.3,1.2,1.9,2.5v0
	C46.3,40.5,41.8,47.9,31.7,47.9z M20.5,38c1.4,2.5,4.5,5.9,10.7,5.9h0.5c6.2,0,9.3-3.4,10.7-5.9H20.5z"/>
<circle class="st0" cx="20.7" cy="25.3" r="3.5"/>
<circle class="st0" cx="41.4" cy="25.3" r="3.5"/>
</svg>
